<svg width="1054" height="952" viewBox="0 0 1054 952" fill="none" xmlns="http://www.w3.org/2000/svg">
<g filter="url(#filter0_f_238_246)">
<mask id="path-1-outside-1_238_246" maskUnits="userSpaceOnUse" x="286" y="275" width="482" height="402" fill="black">
<rect fill="white" x="286" y="275" width="482" height="402"/>
<path fill-rule="evenodd" clip-rule="evenodd" d="M607.545 659.987C610.991 658.514 614.387 656.947 617.731 655.289H629.804V676H630.369V655.289H652.628V676H653.194V655.289H675.453V676H676.019V655.289H698.277V676H698.843V655.289H721.102V676H721.668V655.289H743.927V676H744.493V655.289H766.729V654.723H744.493V634.013H766.729V633.447H744.493V612.736H766.729V612.17H744.493V591.459H767V590.894H744.493V570.183H766.729V569.617H744.493V548.906H766.729V548.34H744.493V527.63H766.729V527.064H744.493V506.353H766.729V505.787H744.493V485.076H766.729V484.51H744.493V468.055H766.188V467.49H744.493V446.779H766.188V446.213H744.493V425.502H766.188V424.936H744.493V404.226H766.188V403.66H744.493V382.949H766.459V382.383H744.493V361.672H766.188V361.106H744.493V340.396H766.188V339.83H744.493V319.119H766.188V318.553H744.493V297.843H766.188V297.277H744.493V276H743.927V297.277H721.668V276H721.102V297.277H698.843V276H698.277V297.277H676.019V276H675.453V297.277H653.194V276H652.628V297.277H630.369V276H629.804V297.277H618.863C615.155 295.409 611.381 293.653 607.545 292.013V276H606.979V291.772C599.766 288.715 592.337 286.07 584.72 283.865V276H584.154V283.702C576.895 281.624 569.467 279.945 561.896 278.692V276H561.33V278.6C554.035 277.414 546.608 276.623 539.071 276.249V276H538.505V276.222C535.355 276.075 532.186 276 529 276C524.716 276 520.463 276.135 516.246 276.4V276H515.681V276.436C508.139 276.932 500.712 277.846 493.422 279.155V276H492.856V279.258C485.279 280.641 477.85 282.451 470.597 284.662V276H470.031V284.835C462.407 287.184 454.978 289.977 447.773 293.183V276H447.207V293.436C444.484 294.658 441.794 295.938 439.137 297.277H424.948V276H424.382V297.277H402.123V276H401.557V297.277H379.299V276H378.733V297.277H356.474V276H355.908V297.277H333.649V276H333.083V297.277H310.825V276H310.259V297.277H287.271V297.843H310.259V318.553H287.271V319.119H310.259V339.83H287.271V340.396H310.259V361.106H287.271V361.672H310.259V382.383H287V382.949H310.259V403.66H287.271V404.226H310.259V424.936H287.271V425.502H310.259V446.213H287.271V446.779H310.259V467.49H287.271V468.055H310.259V484.51H287.812V485.076H310.259V505.787H287.812V506.353H310.259V527.064H287.812V527.63H310.259V548.34H287.812V548.906H310.259V569.617H287.812V570.183H310.259V590.894H287.541V591.459H310.259V612.17H287.812V612.736H310.259V633.447H287.812V634.013H310.259V654.723H287.812V655.289H310.259V676H310.825V655.289H333.083V676H333.649V655.289H355.908V676H356.474V655.289H378.733V676H379.299V655.289H401.557V676H402.123V655.289H424.382V676H424.948V655.289H440.269C442.557 656.424 444.87 657.516 447.207 658.564V676H447.773V658.817C454.978 662.023 462.407 664.816 470.031 667.165V676H470.597V667.338C477.85 669.549 485.279 671.359 492.856 672.742V676H493.422V672.845C500.712 674.154 508.139 675.068 515.681 675.564V676H516.246V675.6C520.463 675.865 524.716 676 529 676C532.186 676 535.355 675.925 538.505 675.778V676H539.071V675.751C546.608 675.377 554.035 674.586 561.33 673.4V676H561.896V673.308C569.467 672.055 576.895 670.376 584.154 668.298V676H584.72V668.135C592.337 665.93 599.766 663.285 606.979 660.228V676H607.545V659.987ZM728.822 484.51C728.94 481.688 729 478.851 729 476C729 473.339 728.948 470.691 728.845 468.055H743.927V484.51H728.822ZM726.797 505.787C727.812 498.989 728.485 492.08 728.798 485.076H743.927V505.787H726.797ZM722.422 527.064C724.205 520.294 725.641 513.384 726.712 506.353H743.927V527.064H722.422ZM721.668 529.846C721.874 529.109 722.075 528.37 722.272 527.63H743.927V548.34H721.668V529.846ZM715.517 548.34C717.609 542.948 719.475 537.442 721.102 531.835V548.34H715.517ZM705.782 569.617C709.331 562.93 712.511 556.017 715.296 548.906H721.102V569.617H705.782ZM698.843 581.661C701.178 577.916 703.392 574.088 705.48 570.183H721.102V590.894H698.843V581.661ZM692.726 590.894C694.644 588.166 696.495 585.388 698.277 582.563V590.894H692.726ZM676.019 611.595C681.874 605.249 687.324 598.524 692.327 591.459H698.277V612.17H676.019V611.595ZM653.194 632.777C660.934 626.637 668.209 619.936 674.958 612.736H675.453V633.447H653.194V632.777ZM652.345 633.447C652.44 633.373 652.534 633.298 652.628 633.224V633.447H652.345ZM630.369 648.444C637.772 644.083 644.869 639.26 651.62 634.013H652.628V654.723H630.369V648.444ZM618.863 654.723C622.578 652.852 626.226 650.868 629.804 648.776V654.723H618.863ZM424.948 646.835C429.558 649.649 434.291 652.282 439.137 654.723H424.948V646.835ZM406.38 634.013C412.138 638.487 418.147 642.654 424.382 646.489V654.723H402.123V634.013H406.38ZM402.123 630.611C403.29 631.569 404.467 632.515 405.655 633.447H402.123V630.611ZM383.043 612.736C388.839 618.92 395.023 624.736 401.557 630.145V633.447H379.299V612.736H383.043ZM379.299 608.629C380.357 609.822 381.429 611.002 382.514 612.17H379.299V608.629ZM365.673 591.459C369.739 597.2 374.099 602.717 378.733 607.988V612.17H356.474V591.459H365.673ZM356.474 577.23C359.226 581.91 362.162 586.468 365.274 590.894H356.474V577.23ZM352.52 570.183C353.615 572.231 354.745 574.257 355.908 576.262V590.894H333.649V570.183H352.52ZM342.704 548.906C345.489 556.017 348.669 562.93 352.218 569.617H333.649V548.906H342.704ZM335.728 527.63C337.61 534.695 339.87 541.606 342.484 548.34H333.649V527.63H335.728ZM333.649 519.07C334.239 521.755 334.882 524.42 335.578 527.064H333.649V519.07ZM331.289 506.353C331.803 509.732 332.402 513.083 333.083 516.405V527.064H310.825V506.353H331.289ZM329.202 485.076C329.515 492.08 330.188 498.989 331.203 505.787H310.825V485.076H329.202ZM329.155 468.055C329.052 470.691 329 473.339 329 476C329 478.851 329.06 481.688 329.178 484.51H310.825V468.055H329.155ZM331.12 446.779C330.124 453.577 329.471 460.487 329.178 467.49H310.825V446.779H331.12ZM333.083 435.595C332.364 439.102 331.736 442.642 331.203 446.213H310.825V425.502H333.083V435.595ZM335.43 425.502C334.79 427.96 334.197 430.436 333.649 432.93V425.502H335.43ZM342.265 404.226C339.674 410.961 337.438 417.872 335.578 424.936H333.649V404.226H342.265ZM351.919 382.949C348.397 389.638 345.243 396.55 342.484 403.66H333.649V382.949H351.919ZM355.908 375.738C354.638 377.927 353.407 380.142 352.218 382.383H333.649V361.672H355.908V375.738ZM364.878 361.672C361.913 365.92 359.109 370.289 356.474 374.769V361.672H364.878ZM378.733 344.012C373.947 349.456 369.453 355.162 365.274 361.106H356.474V340.396H378.733V344.012ZM381.99 340.396C381.083 341.378 380.186 342.37 379.299 343.371V340.396H381.99ZM401.557 321.855C394.824 327.428 388.463 333.434 382.515 339.83H379.299V319.119H401.557V321.855ZM404.937 319.119C403.992 319.867 403.054 320.624 402.123 321.389V319.119H404.937ZM424.382 305.511C417.884 309.507 411.633 313.864 405.655 318.553H402.123V297.843H424.382V305.511ZM438.023 297.843C433.565 300.124 429.204 302.567 424.948 305.165V297.843H438.023ZM629.804 303.224C626.584 301.342 623.308 299.547 619.978 297.843H629.804V303.224ZM652.345 318.553C645.377 313.087 638.037 308.073 630.369 303.556V297.843H652.628V318.553H652.345ZM675.453 339.795C668.566 332.393 661.124 325.513 653.194 319.223V319.119H675.453V339.795ZM692.726 361.106C687.614 353.835 682.03 346.92 676.019 340.405V340.396H698.277V361.106H692.726ZM698.277 369.437C696.618 366.807 694.899 364.218 693.122 361.672H698.277V369.437ZM705.782 382.383C703.605 378.282 701.29 374.265 698.843 370.339V361.672H721.102V382.383H705.782ZM715.517 403.66C712.757 396.55 709.603 389.638 706.081 382.949H721.102V403.66H715.517ZM721.102 420.165C719.532 414.754 717.74 409.437 715.735 404.226H721.102V420.165ZM722.422 424.936C722.177 424.006 721.926 423.079 721.668 422.154V404.226H743.927V424.936H722.422ZM726.797 446.213C725.747 439.183 724.332 432.273 722.57 425.502H743.927V446.213H726.797ZM728.822 467.49C728.529 460.487 727.876 453.577 726.881 446.779H743.927V467.49H728.822ZM310.825 654.723H333.083V634.013H310.825V654.723ZM333.649 654.723H355.908V634.013H333.649V654.723ZM356.474 654.723H378.733V634.013H356.474V654.723ZM379.299 654.723H401.557V634.013H379.299V654.723ZM653.194 654.723H675.453V634.013H653.194V654.723ZM676.019 654.723H698.277V634.013H676.019V654.723ZM698.843 654.723H721.102V634.013H698.843V654.723ZM721.668 654.723H743.927V634.013H721.668V654.723ZM310.825 633.447H333.083V612.736H310.825V633.447ZM333.649 633.447H355.908V612.736H333.649V633.447ZM356.474 633.447H378.733V612.736H356.474V633.447ZM676.019 633.447H698.277V612.736H676.019V633.447ZM698.843 633.447H721.102V612.736H698.843V633.447ZM721.668 633.447H743.927V612.736H721.668V633.447ZM310.825 424.936H333.083V404.226H310.825V424.936ZM310.825 612.17H333.083V591.459H310.825V612.17ZM333.649 612.17H355.908V591.459H333.649V612.17ZM698.843 612.17H721.102V591.459H698.843V612.17ZM721.668 612.17H743.927V591.459H721.668V612.17ZM721.668 403.66H743.927V382.949H721.668V403.66ZM310.825 403.66H333.083V382.949H310.825V403.66ZM310.825 590.894H333.083V570.183H310.825V590.894ZM721.668 590.894H743.927V570.183H721.668V590.894ZM721.668 382.383H743.927V361.672H721.668V382.383ZM310.825 382.383H333.083V361.672H310.825V382.383ZM310.825 569.617H333.083V548.906H310.825V569.617ZM721.668 569.617H743.927V548.906H721.668V569.617ZM333.649 361.106H355.908V340.396H333.649V361.106ZM698.843 361.106H721.102V340.396H698.843V361.106ZM721.668 361.106H743.927V340.396H721.668V361.106ZM310.825 361.106H333.083V340.396H310.825V361.106ZM310.825 548.34H333.083V527.63H310.825V548.34ZM333.649 339.83H355.908V319.119H333.649V339.83ZM356.474 339.83H378.733V319.119H356.474V339.83ZM676.019 339.83H698.277V319.119H676.019V339.83ZM698.843 339.83H721.102V319.119H698.843V339.83ZM721.668 339.83H743.927V319.119H721.668V339.83ZM310.825 339.83H333.083V319.119H310.825V339.83ZM333.649 318.553H355.908V297.843H333.649V318.553ZM356.474 318.553H378.733V297.843H356.474V318.553ZM379.299 318.553H401.557V297.843H379.299V318.553ZM653.194 318.553H675.453V297.843H653.194V318.553ZM676.019 318.553H698.277V297.843H676.019V318.553ZM698.843 318.553H721.102V297.843H698.843V318.553ZM721.668 318.553H743.927V297.843H721.668V318.553ZM310.825 318.553H333.083V297.843H310.825V318.553Z"/>
</mask>
<path fill-rule="evenodd" clip-rule="evenodd" d="M607.545 659.987C610.991 658.514 614.387 656.947 617.731 655.289H629.804V676H630.369V655.289H652.628V676H653.194V655.289H675.453V676H676.019V655.289H698.277V676H698.843V655.289H721.102V676H721.668V655.289H743.927V676H744.493V655.289H766.729V654.723H744.493V634.013H766.729V633.447H744.493V612.736H766.729V612.17H744.493V591.459H767V590.894H744.493V570.183H766.729V569.617H744.493V548.906H766.729V548.34H744.493V527.63H766.729V527.064H744.493V506.353H766.729V505.787H744.493V485.076H766.729V484.51H744.493V468.055H766.188V467.49H744.493V446.779H766.188V446.213H744.493V425.502H766.188V424.936H744.493V404.226H766.188V403.66H744.493V382.949H766.459V382.383H744.493V361.672H766.188V361.106H744.493V340.396H766.188V339.83H744.493V319.119H766.188V318.553H744.493V297.843H766.188V297.277H744.493V276H743.927V297.277H721.668V276H721.102V297.277H698.843V276H698.277V297.277H676.019V276H675.453V297.277H653.194V276H652.628V297.277H630.369V276H629.804V297.277H618.863C615.155 295.409 611.381 293.653 607.545 292.013V276H606.979V291.772C599.766 288.715 592.337 286.07 584.72 283.865V276H584.154V283.702C576.895 281.624 569.467 279.945 561.896 278.692V276H561.33V278.6C554.035 277.414 546.608 276.623 539.071 276.249V276H538.505V276.222C535.355 276.075 532.186 276 529 276C524.716 276 520.463 276.135 516.246 276.4V276H515.681V276.436C508.139 276.932 500.712 277.846 493.422 279.155V276H492.856V279.258C485.279 280.641 477.85 282.451 470.597 284.662V276H470.031V284.835C462.407 287.184 454.978 289.977 447.773 293.183V276H447.207V293.436C444.484 294.658 441.794 295.938 439.137 297.277H424.948V276H424.382V297.277H402.123V276H401.557V297.277H379.299V276H378.733V297.277H356.474V276H355.908V297.277H333.649V276H333.083V297.277H310.825V276H310.259V297.277H287.271V297.843H310.259V318.553H287.271V319.119H310.259V339.83H287.271V340.396H310.259V361.106H287.271V361.672H310.259V382.383H287V382.949H310.259V403.66H287.271V404.226H310.259V424.936H287.271V425.502H310.259V446.213H287.271V446.779H310.259V467.49H287.271V468.055H310.259V484.51H287.812V485.076H310.259V505.787H287.812V506.353H310.259V527.064H287.812V527.63H310.259V548.34H287.812V548.906H310.259V569.617H287.812V570.183H310.259V590.894H287.541V591.459H310.259V612.17H287.812V612.736H310.259V633.447H287.812V634.013H310.259V654.723H287.812V655.289H310.259V676H310.825V655.289H333.083V676H333.649V655.289H355.908V676H356.474V655.289H378.733V676H379.299V655.289H401.557V676H402.123V655.289H424.382V676H424.948V655.289H440.269C442.557 656.424 444.87 657.516 447.207 658.564V676H447.773V658.817C454.978 662.023 462.407 664.816 470.031 667.165V676H470.597V667.338C477.85 669.549 485.279 671.359 492.856 672.742V676H493.422V672.845C500.712 674.154 508.139 675.068 515.681 675.564V676H516.246V675.6C520.463 675.865 524.716 676 529 676C532.186 676 535.355 675.925 538.505 675.778V676H539.071V675.751C546.608 675.377 554.035 674.586 561.33 673.4V676H561.896V673.308C569.467 672.055 576.895 670.376 584.154 668.298V676H584.72V668.135C592.337 665.93 599.766 663.285 606.979 660.228V676H607.545V659.987ZM728.822 484.51C728.94 481.688 729 478.851 729 476C729 473.339 728.948 470.691 728.845 468.055H743.927V484.51H728.822ZM726.797 505.787C727.812 498.989 728.485 492.08 728.798 485.076H743.927V505.787H726.797ZM722.422 527.064C724.205 520.294 725.641 513.384 726.712 506.353H743.927V527.064H722.422ZM721.668 529.846C721.874 529.109 722.075 528.37 722.272 527.63H743.927V548.34H721.668V529.846ZM715.517 548.34C717.609 542.948 719.475 537.442 721.102 531.835V548.34H715.517ZM705.782 569.617C709.331 562.93 712.511 556.017 715.296 548.906H721.102V569.617H705.782ZM698.843 581.661C701.178 577.916 703.392 574.088 705.48 570.183H721.102V590.894H698.843V581.661ZM692.726 590.894C694.644 588.166 696.495 585.388 698.277 582.563V590.894H692.726ZM676.019 611.595C681.874 605.249 687.324 598.524 692.327 591.459H698.277V612.17H676.019V611.595ZM653.194 632.777C660.934 626.637 668.209 619.936 674.958 612.736H675.453V633.447H653.194V632.777ZM652.345 633.447C652.44 633.373 652.534 633.298 652.628 633.224V633.447H652.345ZM630.369 648.444C637.772 644.083 644.869 639.26 651.62 634.013H652.628V654.723H630.369V648.444ZM618.863 654.723C622.578 652.852 626.226 650.868 629.804 648.776V654.723H618.863ZM424.948 646.835C429.558 649.649 434.291 652.282 439.137 654.723H424.948V646.835ZM406.38 634.013C412.138 638.487 418.147 642.654 424.382 646.489V654.723H402.123V634.013H406.38ZM402.123 630.611C403.29 631.569 404.467 632.515 405.655 633.447H402.123V630.611ZM383.043 612.736C388.839 618.92 395.023 624.736 401.557 630.145V633.447H379.299V612.736H383.043ZM379.299 608.629C380.357 609.822 381.429 611.002 382.514 612.17H379.299V608.629ZM365.673 591.459C369.739 597.2 374.099 602.717 378.733 607.988V612.17H356.474V591.459H365.673ZM356.474 577.23C359.226 581.91 362.162 586.468 365.274 590.894H356.474V577.23ZM352.52 570.183C353.615 572.231 354.745 574.257 355.908 576.262V590.894H333.649V570.183H352.52ZM342.704 548.906C345.489 556.017 348.669 562.93 352.218 569.617H333.649V548.906H342.704ZM335.728 527.63C337.61 534.695 339.87 541.606 342.484 548.34H333.649V527.63H335.728ZM333.649 519.07C334.239 521.755 334.882 524.42 335.578 527.064H333.649V519.07ZM331.289 506.353C331.803 509.732 332.402 513.083 333.083 516.405V527.064H310.825V506.353H331.289ZM329.202 485.076C329.515 492.08 330.188 498.989 331.203 505.787H310.825V485.076H329.202ZM329.155 468.055C329.052 470.691 329 473.339 329 476C329 478.851 329.06 481.688 329.178 484.51H310.825V468.055H329.155ZM331.12 446.779C330.124 453.577 329.471 460.487 329.178 467.49H310.825V446.779H331.12ZM333.083 435.595C332.364 439.102 331.736 442.642 331.203 446.213H310.825V425.502H333.083V435.595ZM335.43 425.502C334.79 427.96 334.197 430.436 333.649 432.93V425.502H335.43ZM342.265 404.226C339.674 410.961 337.438 417.872 335.578 424.936H333.649V404.226H342.265ZM351.919 382.949C348.397 389.638 345.243 396.55 342.484 403.66H333.649V382.949H351.919ZM355.908 375.738C354.638 377.927 353.407 380.142 352.218 382.383H333.649V361.672H355.908V375.738ZM364.878 361.672C361.913 365.92 359.109 370.289 356.474 374.769V361.672H364.878ZM378.733 344.012C373.947 349.456 369.453 355.162 365.274 361.106H356.474V340.396H378.733V344.012ZM381.99 340.396C381.083 341.378 380.186 342.37 379.299 343.371V340.396H381.99ZM401.557 321.855C394.824 327.428 388.463 333.434 382.515 339.83H379.299V319.119H401.557V321.855ZM404.937 319.119C403.992 319.867 403.054 320.624 402.123 321.389V319.119H404.937ZM424.382 305.511C417.884 309.507 411.633 313.864 405.655 318.553H402.123V297.843H424.382V305.511ZM438.023 297.843C433.565 300.124 429.204 302.567 424.948 305.165V297.843H438.023ZM629.804 303.224C626.584 301.342 623.308 299.547 619.978 297.843H629.804V303.224ZM652.345 318.553C645.377 313.087 638.037 308.073 630.369 303.556V297.843H652.628V318.553H652.345ZM675.453 339.795C668.566 332.393 661.124 325.513 653.194 319.223V319.119H675.453V339.795ZM692.726 361.106C687.614 353.835 682.03 346.92 676.019 340.405V340.396H698.277V361.106H692.726ZM698.277 369.437C696.618 366.807 694.899 364.218 693.122 361.672H698.277V369.437ZM705.782 382.383C703.605 378.282 701.29 374.265 698.843 370.339V361.672H721.102V382.383H705.782ZM715.517 403.66C712.757 396.55 709.603 389.638 706.081 382.949H721.102V403.66H715.517ZM721.102 420.165C719.532 414.754 717.74 409.437 715.735 404.226H721.102V420.165ZM722.422 424.936C722.177 424.006 721.926 423.079 721.668 422.154V404.226H743.927V424.936H722.422ZM726.797 446.213C725.747 439.183 724.332 432.273 722.57 425.502H743.927V446.213H726.797ZM728.822 467.49C728.529 460.487 727.876 453.577 726.881 446.779H743.927V467.49H728.822ZM310.825 654.723H333.083V634.013H310.825V654.723ZM333.649 654.723H355.908V634.013H333.649V654.723ZM356.474 654.723H378.733V634.013H356.474V654.723ZM379.299 654.723H401.557V634.013H379.299V654.723ZM653.194 654.723H675.453V634.013H653.194V654.723ZM676.019 654.723H698.277V634.013H676.019V654.723ZM698.843 654.723H721.102V634.013H698.843V654.723ZM721.668 654.723H743.927V634.013H721.668V654.723ZM310.825 633.447H333.083V612.736H310.825V633.447ZM333.649 633.447H355.908V612.736H333.649V633.447ZM356.474 633.447H378.733V612.736H356.474V633.447ZM676.019 633.447H698.277V612.736H676.019V633.447ZM698.843 633.447H721.102V612.736H698.843V633.447ZM721.668 633.447H743.927V612.736H721.668V633.447ZM310.825 424.936H333.083V404.226H310.825V424.936ZM310.825 612.17H333.083V591.459H310.825V612.17ZM333.649 612.17H355.908V591.459H333.649V612.17ZM698.843 612.17H721.102V591.459H698.843V612.17ZM721.668 612.17H743.927V591.459H721.668V612.17ZM721.668 403.66H743.927V382.949H721.668V403.66ZM310.825 403.66H333.083V382.949H310.825V403.66ZM310.825 590.894H333.083V570.183H310.825V590.894ZM721.668 590.894H743.927V570.183H721.668V590.894ZM721.668 382.383H743.927V361.672H721.668V382.383ZM310.825 382.383H333.083V361.672H310.825V382.383ZM310.825 569.617H333.083V548.906H310.825V569.617ZM721.668 569.617H743.927V548.906H721.668V569.617ZM333.649 361.106H355.908V340.396H333.649V361.106ZM698.843 361.106H721.102V340.396H698.843V361.106ZM721.668 361.106H743.927V340.396H721.668V361.106ZM310.825 361.106H333.083V340.396H310.825V361.106ZM310.825 548.34H333.083V527.63H310.825V548.34ZM333.649 339.83H355.908V319.119H333.649V339.83ZM356.474 339.83H378.733V319.119H356.474V339.83ZM676.019 339.83H698.277V319.119H676.019V339.83ZM698.843 339.83H721.102V319.119H698.843V339.83ZM721.668 339.83H743.927V319.119H721.668V339.83ZM310.825 339.83H333.083V319.119H310.825V339.83ZM333.649 318.553H355.908V297.843H333.649V318.553ZM356.474 318.553H378.733V297.843H356.474V318.553ZM379.299 318.553H401.557V297.843H379.299V318.553ZM653.194 318.553H675.453V297.843H653.194V318.553ZM676.019 318.553H698.277V297.843H676.019V318.553ZM698.843 318.553H721.102V297.843H698.843V318.553ZM721.668 318.553H743.927V297.843H721.668V318.553ZM310.825 318.553H333.083V297.843H310.825V318.553Z" fill="url(#paint0_linear_238_246)"/>
<path fill-rule="evenodd" clip-rule="evenodd" d="M607.545 659.987C610.991 658.514 614.387 656.947 617.731 655.289H629.804V676H630.369V655.289H652.628V676H653.194V655.289H675.453V676H676.019V655.289H698.277V676H698.843V655.289H721.102V676H721.668V655.289H743.927V676H744.493V655.289H766.729V654.723H744.493V634.013H766.729V633.447H744.493V612.736H766.729V612.17H744.493V591.459H767V590.894H744.493V570.183H766.729V569.617H744.493V548.906H766.729V548.34H744.493V527.63H766.729V527.064H744.493V506.353H766.729V505.787H744.493V485.076H766.729V484.51H744.493V468.055H766.188V467.49H744.493V446.779H766.188V446.213H744.493V425.502H766.188V424.936H744.493V404.226H766.188V403.66H744.493V382.949H766.459V382.383H744.493V361.672H766.188V361.106H744.493V340.396H766.188V339.83H744.493V319.119H766.188V318.553H744.493V297.843H766.188V297.277H744.493V276H743.927V297.277H721.668V276H721.102V297.277H698.843V276H698.277V297.277H676.019V276H675.453V297.277H653.194V276H652.628V297.277H630.369V276H629.804V297.277H618.863C615.155 295.409 611.381 293.653 607.545 292.013V276H606.979V291.772C599.766 288.715 592.337 286.07 584.72 283.865V276H584.154V283.702C576.895 281.624 569.467 279.945 561.896 278.692V276H561.33V278.6C554.035 277.414 546.608 276.623 539.071 276.249V276H538.505V276.222C535.355 276.075 532.186 276 529 276C524.716 276 520.463 276.135 516.246 276.4V276H515.681V276.436C508.139 276.932 500.712 277.846 493.422 279.155V276H492.856V279.258C485.279 280.641 477.85 282.451 470.597 284.662V276H470.031V284.835C462.407 287.184 454.978 289.977 447.773 293.183V276H447.207V293.436C444.484 294.658 441.794 295.938 439.137 297.277H424.948V276H424.382V297.277H402.123V276H401.557V297.277H379.299V276H378.733V297.277H356.474V276H355.908V297.277H333.649V276H333.083V297.277H310.825V276H310.259V297.277H287.271V297.843H310.259V318.553H287.271V319.119H310.259V339.83H287.271V340.396H310.259V361.106H287.271V361.672H310.259V382.383H287V382.949H310.259V403.66H287.271V404.226H310.259V424.936H287.271V425.502H310.259V446.213H287.271V446.779H310.259V467.49H287.271V468.055H310.259V484.51H287.812V485.076H310.259V505.787H287.812V506.353H310.259V527.064H287.812V527.63H310.259V548.34H287.812V548.906H310.259V569.617H287.812V570.183H310.259V590.894H287.541V591.459H310.259V612.17H287.812V612.736H310.259V633.447H287.812V634.013H310.259V654.723H287.812V655.289H310.259V676H310.825V655.289H333.083V676H333.649V655.289H355.908V676H356.474V655.289H378.733V676H379.299V655.289H401.557V676H402.123V655.289H424.382V676H424.948V655.289H440.269C442.557 656.424 444.87 657.516 447.207 658.564V676H447.773V658.817C454.978 662.023 462.407 664.816 470.031 667.165V676H470.597V667.338C477.85 669.549 485.279 671.359 492.856 672.742V676H493.422V672.845C500.712 674.154 508.139 675.068 515.681 675.564V676H516.246V675.6C520.463 675.865 524.716 676 529 676C532.186 676 535.355 675.925 538.505 675.778V676H539.071V675.751C546.608 675.377 554.035 674.586 561.33 673.4V676H561.896V673.308C569.467 672.055 576.895 670.376 584.154 668.298V676H584.72V668.135C592.337 665.93 599.766 663.285 606.979 660.228V676H607.545V659.987ZM728.822 484.51C728.94 481.688 729 478.851 729 476C729 473.339 728.948 470.691 728.845 468.055H743.927V484.51H728.822ZM726.797 505.787C727.812 498.989 728.485 492.08 728.798 485.076H743.927V505.787H726.797ZM722.422 527.064C724.205 520.294 725.641 513.384 726.712 506.353H743.927V527.064H722.422ZM721.668 529.846C721.874 529.109 722.075 528.37 722.272 527.63H743.927V548.34H721.668V529.846ZM715.517 548.34C717.609 542.948 719.475 537.442 721.102 531.835V548.34H715.517ZM705.782 569.617C709.331 562.93 712.511 556.017 715.296 548.906H721.102V569.617H705.782ZM698.843 581.661C701.178 577.916 703.392 574.088 705.48 570.183H721.102V590.894H698.843V581.661ZM692.726 590.894C694.644 588.166 696.495 585.388 698.277 582.563V590.894H692.726ZM676.019 611.595C681.874 605.249 687.324 598.524 692.327 591.459H698.277V612.17H676.019V611.595ZM653.194 632.777C660.934 626.637 668.209 619.936 674.958 612.736H675.453V633.447H653.194V632.777ZM652.345 633.447C652.44 633.373 652.534 633.298 652.628 633.224V633.447H652.345ZM630.369 648.444C637.772 644.083 644.869 639.26 651.62 634.013H652.628V654.723H630.369V648.444ZM618.863 654.723C622.578 652.852 626.226 650.868 629.804 648.776V654.723H618.863ZM424.948 646.835C429.558 649.649 434.291 652.282 439.137 654.723H424.948V646.835ZM406.38 634.013C412.138 638.487 418.147 642.654 424.382 646.489V654.723H402.123V634.013H406.38ZM402.123 630.611C403.29 631.569 404.467 632.515 405.655 633.447H402.123V630.611ZM383.043 612.736C388.839 618.92 395.023 624.736 401.557 630.145V633.447H379.299V612.736H383.043ZM379.299 608.629C380.357 609.822 381.429 611.002 382.514 612.17H379.299V608.629ZM365.673 591.459C369.739 597.2 374.099 602.717 378.733 607.988V612.17H356.474V591.459H365.673ZM356.474 577.23C359.226 581.91 362.162 586.468 365.274 590.894H356.474V577.23ZM352.52 570.183C353.615 572.231 354.745 574.257 355.908 576.262V590.894H333.649V570.183H352.52ZM342.704 548.906C345.489 556.017 348.669 562.93 352.218 569.617H333.649V548.906H342.704ZM335.728 527.63C337.61 534.695 339.87 541.606 342.484 548.34H333.649V527.63H335.728ZM333.649 519.07C334.239 521.755 334.882 524.42 335.578 527.064H333.649V519.07ZM331.289 506.353C331.803 509.732 332.402 513.083 333.083 516.405V527.064H310.825V506.353H331.289ZM329.202 485.076C329.515 492.08 330.188 498.989 331.203 505.787H310.825V485.076H329.202ZM329.155 468.055C329.052 470.691 329 473.339 329 476C329 478.851 329.06 481.688 329.178 484.51H310.825V468.055H329.155ZM331.12 446.779C330.124 453.577 329.471 460.487 329.178 467.49H310.825V446.779H331.12ZM333.083 435.595C332.364 439.102 331.736 442.642 331.203 446.213H310.825V425.502H333.083V435.595ZM335.43 425.502C334.79 427.96 334.197 430.436 333.649 432.93V425.502H335.43ZM342.265 404.226C339.674 410.961 337.438 417.872 335.578 424.936H333.649V404.226H342.265ZM351.919 382.949C348.397 389.638 345.243 396.55 342.484 403.66H333.649V382.949H351.919ZM355.908 375.738C354.638 377.927 353.407 380.142 352.218 382.383H333.649V361.672H355.908V375.738ZM364.878 361.672C361.913 365.92 359.109 370.289 356.474 374.769V361.672H364.878ZM378.733 344.012C373.947 349.456 369.453 355.162 365.274 361.106H356.474V340.396H378.733V344.012ZM381.99 340.396C381.083 341.378 380.186 342.37 379.299 343.371V340.396H381.99ZM401.557 321.855C394.824 327.428 388.463 333.434 382.515 339.83H379.299V319.119H401.557V321.855ZM404.937 319.119C403.992 319.867 403.054 320.624 402.123 321.389V319.119H404.937ZM424.382 305.511C417.884 309.507 411.633 313.864 405.655 318.553H402.123V297.843H424.382V305.511ZM438.023 297.843C433.565 300.124 429.204 302.567 424.948 305.165V297.843H438.023ZM629.804 303.224C626.584 301.342 623.308 299.547 619.978 297.843H629.804V303.224ZM652.345 318.553C645.377 313.087 638.037 308.073 630.369 303.556V297.843H652.628V318.553H652.345ZM675.453 339.795C668.566 332.393 661.124 325.513 653.194 319.223V319.119H675.453V339.795ZM692.726 361.106C687.614 353.835 682.03 346.92 676.019 340.405V340.396H698.277V361.106H692.726ZM698.277 369.437C696.618 366.807 694.899 364.218 693.122 361.672H698.277V369.437ZM705.782 382.383C703.605 378.282 701.29 374.265 698.843 370.339V361.672H721.102V382.383H705.782ZM715.517 403.66C712.757 396.55 709.603 389.638 706.081 382.949H721.102V403.66H715.517ZM721.102 420.165C719.532 414.754 717.74 409.437 715.735 404.226H721.102V420.165ZM722.422 424.936C722.177 424.006 721.926 423.079 721.668 422.154V404.226H743.927V424.936H722.422ZM726.797 446.213C725.747 439.183 724.332 432.273 722.57 425.502H743.927V446.213H726.797ZM728.822 467.49C728.529 460.487 727.876 453.577 726.881 446.779H743.927V467.49H728.822ZM310.825 654.723H333.083V634.013H310.825V654.723ZM333.649 654.723H355.908V634.013H333.649V654.723ZM356.474 654.723H378.733V634.013H356.474V654.723ZM379.299 654.723H401.557V634.013H379.299V654.723ZM653.194 654.723H675.453V634.013H653.194V654.723ZM676.019 654.723H698.277V634.013H676.019V654.723ZM698.843 654.723H721.102V634.013H698.843V654.723ZM721.668 654.723H743.927V634.013H721.668V654.723ZM310.825 633.447H333.083V612.736H310.825V633.447ZM333.649 633.447H355.908V612.736H333.649V633.447ZM356.474 633.447H378.733V612.736H356.474V633.447ZM676.019 633.447H698.277V612.736H676.019V633.447ZM698.843 633.447H721.102V612.736H698.843V633.447ZM721.668 633.447H743.927V612.736H721.668V633.447ZM310.825 424.936H333.083V404.226H310.825V424.936ZM310.825 612.17H333.083V591.459H310.825V612.17ZM333.649 612.17H355.908V591.459H333.649V612.17ZM698.843 612.17H721.102V591.459H698.843V612.17ZM721.668 612.17H743.927V591.459H721.668V612.17ZM721.668 403.66H743.927V382.949H721.668V403.66ZM310.825 403.66H333.083V382.949H310.825V403.66ZM310.825 590.894H333.083V570.183H310.825V590.894ZM721.668 590.894H743.927V570.183H721.668V590.894ZM721.668 382.383H743.927V361.672H721.668V382.383ZM310.825 382.383H333.083V361.672H310.825V382.383ZM310.825 569.617H333.083V548.906H310.825V569.617ZM721.668 569.617H743.927V548.906H721.668V569.617ZM333.649 361.106H355.908V340.396H333.649V361.106ZM698.843 361.106H721.102V340.396H698.843V361.106ZM721.668 361.106H743.927V340.396H721.668V361.106ZM310.825 361.106H333.083V340.396H310.825V361.106ZM310.825 548.34H333.083V527.63H310.825V548.34ZM333.649 339.83H355.908V319.119H333.649V339.83ZM356.474 339.83H378.733V319.119H356.474V339.83ZM676.019 339.83H698.277V319.119H676.019V339.83ZM698.843 339.83H721.102V319.119H698.843V339.83ZM721.668 339.83H743.927V319.119H721.668V339.83ZM310.825 339.83H333.083V319.119H310.825V339.83ZM333.649 318.553H355.908V297.843H333.649V318.553ZM356.474 318.553H378.733V297.843H356.474V318.553ZM379.299 318.553H401.557V297.843H379.299V318.553ZM653.194 318.553H675.453V297.843H653.194V318.553ZM676.019 318.553H698.277V297.843H676.019V318.553ZM698.843 318.553H721.102V297.843H698.843V318.553ZM721.668 318.553H743.927V297.843H721.668V318.553ZM310.825 318.553H333.083V297.843H310.825V318.553Z" stroke="black" stroke-width="2" mask="url(#path-1-outside-1_238_246)"/>
</g>
<defs>
<filter id="filter0_f_238_246" x="0.809753" y="-10.1902" width="1052.38" height="972.38" filterUnits="userSpaceOnUse" color-interpolation-filters="sRGB">
<feFlood flood-opacity="0" result="BackgroundImageFix"/>
<feBlend mode="normal" in="SourceGraphic" in2="BackgroundImageFix" result="shape"/>
<feGaussianBlur stdDeviation="142.595" result="effect1_foregroundBlur_238_246"/>
</filter>
<linearGradient id="paint0_linear_238_246" x1="529" y1="276" x2="529" y2="676" gradientUnits="userSpaceOnUse">
<stop offset="1" stop-color="#50D2C1" stop-opacity="0.5"/>
</linearGradient>
</defs>
</svg>
